<svg t="1688627631845" class="icon" viewBox="0 0 1024 1024" version="1.1" xmlns="http://www.w3.org/2000/svg" p-id="895" width="200" height="200"><path d="M1011.328 134.496C900.576 50.56 730.144 0.448 555.424 0.448 339.296 0.448 163.2 75.904 72.256 207.456 29.536 269.248 5.92 342.4 2.048 424.928c-3.456 73.472 8.896 154.72 36.672 242.144C133.6 382.688 398.528 159.968 704 159.968c0 0-285.824 75.232-465.536 308.192-0.096 0.128-2.496 3.104-6.624 8.704a673.76 673.76 0 0 0-91.072 165.312 984.672 984.672 0 0 0-76.8 381.792h128s-19.424-122.208 14.368-262.784c55.904 7.552 105.856 11.296 150.848 11.296 117.664 0 201.376-25.472 263.392-80.128 55.552-48.992 86.208-114.784 118.624-184.448 49.536-106.4 105.664-227.008 268.64-320.16a32 32 0 0 0 3.456-53.312z" p-id="896" fill="#002FA7"></path></svg>